# xmcd CD database file
#
# Track frame offsets:
#	150
#	14968
#	33211
#	48767
#	67058
#	87618
#	109190
#	129145
#	147060
#	163721
#	182869
#	198777
#
# Disc length: 2868 seconds
#
# Revision: 0
# Processed by: cddbd v1.5.2PL0 Copyright (c) Steve Scherf et al.
# Submitted via: CDex 1.70beta2
#
DISCID=a40b320c
DTITLE=Harper - Stand Together
DYEAR=2010
DGENRE=Blues
TTITLE0=I Never Want
TTITLE1=Looking At You
TTITLE2=We Stand Together
TTITLE3=Love=Peace=Freedom
TTITLE4=You Know What You Got
TTITLE5=No Problem
TTITLE6=Weaker Man
TTITLE7=Not My Brother
TTITLE8=Chill Out
TTITLE9=Take These Arms
TTITLE10=What Are You Gonna Do
TTITLE11=Damn Shame
EXTD=YEAR: 2010
EXTT0=
EXTT1=
EXTT2=
EXTT3=
EXTT4=
EXTT5=
EXTT6=
EXTT7=
EXTT8=
EXTT9=
EXTT10=
EXTT11=
PLAYORDER=
